<svg width="270" height="67" viewBox="0 0 270 67" fill="none" xmlns="http://www.w3.org/2000/svg">
<path d="M138.722 0.102966H131.828V46.0446H138.722V0.102966Z" fill="#C61323"/>
<path d="M48.7407 0.102936V46.0343H76.3862V39.2285H54.7664C54.7562 39.2285 54.7464 39.2245 54.7392 39.2172C54.732 39.21 54.728 39.2002 54.728 39.1899V26.5204C54.7264 26.5146 54.7261 26.5084 54.7273 26.5025C54.7285 26.4965 54.7311 26.4909 54.7348 26.4862C54.7386 26.4814 54.7434 26.4776 54.7489 26.4751C54.7543 26.4725 54.7603 26.4713 54.7664 26.4715H73.8213V19.6657H54.7664C54.7562 19.6657 54.7464 19.6617 54.7392 19.6544C54.732 19.6472 54.728 19.6374 54.728 19.6271V6.95764C54.7264 6.95179 54.7261 6.94564 54.7273 6.93969C54.7285 6.93374 54.7311 6.92815 54.7348 6.92339C54.7386 6.91863 54.7434 6.91482 54.7489 6.91227C54.7543 6.90972 54.7603 6.90851 54.7664 6.90873H76.3811V0.102936H48.7407Z" fill="#C61323"/>
<path d="M121.533 33.1229V32.7857C121.533 31.0889 121.201 29.4087 120.555 27.8411C119.909 26.2735 118.962 24.8492 117.769 23.6495C116.576 22.4498 115.159 21.4983 113.6 20.8492C112.041 20.2001 110.37 19.8662 108.683 19.8665H97.42C93.6596 19.8665 90.5854 16.7776 90.8106 12.9938C91.0154 9.59604 93.8107 6.9216 98.0394 6.9216H118.541V0.102936H97.4507C94.1825 0.102936 91.0481 1.40846 88.7372 3.73232C86.4262 6.05617 85.1279 9.208 85.1279 12.4944V13.6013C85.1333 17.017 86.4867 20.2909 88.8908 22.7041C91.2948 25.1172 94.553 26.4722 97.9498 26.4715H109.139C110.772 26.4763 112.338 27.1312 113.493 28.2931C114.648 29.4551 115.298 31.0295 115.303 32.6724V33.0096C115.307 34.6304 114.671 36.1866 113.536 37.337C112.401 38.4874 110.858 39.138 109.246 39.1462L84.9513 39.0844V46.0807L108.683 46.0369C110.371 46.0372 112.042 45.7032 113.601 45.054C115.16 44.4047 116.577 43.4529 117.77 42.253C118.963 41.053 119.91 39.6284 120.556 38.0605C121.201 36.4926 121.533 34.8122 121.533 33.1152" fill="#C61323"/>
<path d="M197.208 0.102936V46.0343H224.853V39.2285H203.233C203.223 39.2285 203.213 39.2245 203.206 39.2172C203.199 39.21 203.195 39.2002 203.195 39.1899V26.5204C203.193 26.5146 203.193 26.5084 203.194 26.5025C203.195 26.4965 203.198 26.4909 203.202 26.4862C203.206 26.4814 203.21 26.4776 203.216 26.4751C203.221 26.4725 203.227 26.4713 203.233 26.4715H222.288V19.6657H203.233C203.223 19.6657 203.213 19.6617 203.206 19.6544C203.199 19.6472 203.195 19.6374 203.195 19.6271V6.95764C203.193 6.95179 203.193 6.94564 203.194 6.93969C203.195 6.93374 203.198 6.92815 203.202 6.92339C203.206 6.91863 203.21 6.91482 203.216 6.91227C203.221 6.90972 203.227 6.90851 203.233 6.90873H224.848V0.102936H197.208Z" fill="#C61323"/>
<path d="M270 33.1229V32.7857C270 31.0889 269.668 29.4087 269.022 27.8411C268.376 26.2735 267.429 24.8492 266.236 23.6495C265.043 22.4498 263.626 21.4983 262.067 20.8492C260.508 20.2001 258.837 19.8662 257.15 19.8665H245.887C242.127 19.8665 239.052 16.7776 239.278 12.9938C239.482 9.59604 242.278 6.9216 246.506 6.9216H267.008V0.102936H245.92C242.652 0.102936 239.518 1.40846 237.207 3.73232C234.896 6.05617 233.597 9.208 233.597 12.4944V13.6013C233.603 17.0166 234.956 20.2901 237.359 22.7032C239.763 25.1162 243.02 26.4715 246.417 26.4715H257.606C259.239 26.4763 260.805 27.1312 261.96 28.2931C263.115 29.4551 263.765 31.0295 263.769 32.6724V33.0096C263.774 34.6304 263.138 36.1866 262.003 37.337C260.868 38.4874 259.325 39.138 257.713 39.1462L233.418 39.0844V46.0807L257.15 46.0369C258.837 46.0372 260.509 45.7032 262.068 45.054C263.627 44.4047 265.044 43.4529 266.237 42.253C267.43 41.053 268.377 39.6284 269.023 38.0605C269.668 36.4926 270 34.8122 270 33.1152" fill="#C61323"/>
<path d="M172.795 0.102936H151.639V46.0343H157.764V31.6196C157.764 31.5568 157.789 31.4966 157.833 31.4522C157.877 31.4078 157.937 31.3828 158 31.3828H169.485C169.521 31.3839 169.556 31.3925 169.588 31.408C169.62 31.4235 169.649 31.4456 169.672 31.4729L181.204 46.0523H188.612L176.712 31.303C176.686 31.2719 176.669 31.2349 176.662 31.1953C176.655 31.1557 176.658 31.1149 176.67 31.0768C176.683 31.0387 176.705 31.0045 176.735 30.9774C176.765 30.9503 176.801 30.9313 176.84 30.9221C183.651 29.2515 188.41 23.169 188.41 15.9179V15.8047C188.41 11.6403 186.765 7.6465 183.836 4.70186C180.908 1.75722 176.936 0.102936 172.795 0.102936ZM182.417 16.3658C182.417 18.6186 181.527 20.7792 179.943 22.3722C178.359 23.9652 176.21 24.8602 173.97 24.8602H158.033V6.63331H172.739C175.306 6.63331 177.767 7.65869 179.583 9.48389C181.398 11.3091 182.417 13.7846 182.417 16.3658Z" fill="#C61323"/>
<path d="M40.2755 21.7868C40.2755 16.0097 37.9935 10.4692 33.9314 6.38392C29.8692 2.29866 24.3597 0.0032461 18.6147 0.00256348H0.00255837V6.54066H17.002C19.5986 6.53742 22.1615 7.13176 24.4945 8.27814C36.6125 14.2396 36.6125 31.8951 24.4945 37.8566C22.1612 39.0051 19.5973 39.6012 16.9995 39.5992H0V46.1373H18.6121C24.3572 46.1366 29.8667 43.8412 33.9288 39.7559C37.9909 35.6707 40.2729 30.1302 40.2729 24.3531L40.2755 21.7868Z" fill="#C61323"/>
<path d="M0.0102539 14.6798V31.3262L14.4013 23.0043L0.0102539 14.6798Z" fill="#C61323"/>
<path d="M1.80718 66.6834C1.18261 66.5176 0.594115 66.2365 0.0716553 65.8545L0.839588 64.1454C1.29324 64.4722 1.79628 64.7233 2.32938 64.8893C2.88659 65.0716 3.46869 65.1654 4.05467 65.1673C4.54507 65.2008 5.0355 65.1022 5.47534 64.8815C5.61526 64.8078 5.73228 64.6967 5.81355 64.5605C5.89483 64.4243 5.93723 64.2682 5.9361 64.1093C5.93753 63.9984 5.91384 63.8886 5.86683 63.7883C5.81982 63.6879 5.75072 63.5997 5.66476 63.5302C5.45809 63.3628 5.22187 63.2362 4.9685 63.1569C4.68437 63.0643 4.3004 62.9613 3.81917 62.8506C3.20078 62.7097 2.59132 62.5318 1.99405 62.3178C1.52405 62.1458 1.10491 61.8572 0.775594 61.4786C0.419406 61.037 0.237188 60.4791 0.263638 59.911C0.258188 59.3612 0.418858 58.8226 0.724397 58.3666C1.07025 57.8723 1.55132 57.4896 2.10924 57.2649C2.82819 56.9764 3.59828 56.8388 4.37208 56.8608C4.98728 56.8599 5.60026 56.9351 6.1972 57.0847C6.74794 57.2158 7.27482 57.433 7.75866 57.7282L7.05984 59.4503C6.24241 58.9596 5.31117 58.6933 4.35928 58.6781C3.87269 58.6431 3.38642 58.7504 2.95908 58.987C2.8199 59.0708 2.70489 59.1896 2.62543 59.3319C2.54596 59.4741 2.5048 59.6347 2.506 59.7978C2.50466 59.9604 2.55306 60.1194 2.64464 60.2534C2.73621 60.3874 2.86654 60.4898 3.01796 60.5468C3.53176 60.7623 4.06611 60.9245 4.6127 61.0308C5.23108 61.1716 5.84054 61.3496 6.43782 61.5636C6.91102 61.7362 7.33352 62.0257 7.66651 62.4053C8.02203 62.8383 8.20453 63.3888 8.17846 63.9497C8.18445 64.5008 8.02083 65.0403 7.71002 65.4942C7.35941 65.9885 6.874 66.3702 6.31239 66.5933C5.59087 66.8825 4.81832 67.0209 4.04187 67C3.28577 67.002 2.53327 66.8954 1.80718 66.6834Z" fill="white"/>
<path d="M25.5312 58.8763H22.4108V57.0281H30.9067V58.8763H27.7864V66.8301H25.5312V58.8763Z" fill="white"/>
<path d="M51.9788 64.7297H47.4506L46.5879 66.8301H44.2841L48.6357 57.0281H50.8653L55.2169 66.8301H52.8491L51.9788 64.7297ZM51.2672 63.0076L49.7313 59.2547L48.1955 63.0076H51.2672Z" fill="white"/>
<path d="M76.3632 66.8301L74.4767 64.099H72.4032V66.8301H70.1506V57.0281H74.3717C75.144 57.0097 75.9113 57.158 76.6217 57.4631C77.2306 57.7167 77.7473 58.1521 78.1021 58.7105C78.4569 59.2689 78.6326 59.9234 78.6056 60.5854C78.631 61.246 78.4515 61.8982 78.0919 62.4517C77.7324 63.0051 77.2105 63.4324 76.5987 63.6743L78.7873 66.8249L76.3632 66.8301ZM75.7924 59.3164C75.3464 58.9957 74.8037 58.8402 74.2565 58.8763H72.4186V62.2946H74.2565C74.8048 62.3309 75.3484 62.1724 75.7924 61.8467C75.9601 61.682 76.0934 61.4852 76.1844 61.268C76.2754 61.0507 76.3223 60.8173 76.3223 60.5816C76.3223 60.3458 76.2754 60.1125 76.1844 59.8952C76.0934 59.6779 75.9601 59.4812 75.7924 59.3164Z" fill="white"/>
<path d="M96.1938 58.8763H93.076V57.0281H101.569V58.8763H98.4515V66.8301H96.1938V58.8763Z" fill="white"/>
<path d="M134.578 57.0281H136.833V64.9819H141.722V66.8301H134.578V57.0281Z" fill="white"/>
<path d="M156.914 57.0281H159.172V66.8301H156.914V57.0281Z" fill="white"/>
<path d="M184.726 57.0281L180.508 66.8301H178.278L174.072 57.0281H176.509L179.476 64.0295L182.484 57.0281H184.726Z" fill="white"/>
<path d="M199.46 57.0281H201.718V66.8301H199.46V57.0281Z" fill="white"/>
<path d="M226.896 57.0281V66.8301H225.045L220.182 60.8789V66.8301H217.952V57.0281H219.821L224.666 62.9793V57.0281H226.896Z" fill="white"/>
<path d="M249.724 61.7747H251.785V65.7516C251.231 66.1659 250.609 66.4787 249.947 66.6757C249.266 66.8896 248.556 66.9989 247.843 67C246.893 67.0143 245.955 66.7904 245.114 66.3488C244.327 65.935 243.669 65.3117 243.212 64.5469C242.761 63.751 242.523 62.8505 242.523 61.9343C242.523 61.018 242.761 60.1175 243.212 59.3216C243.671 58.5537 244.334 57.9298 245.127 57.5198C245.978 57.0768 246.925 56.853 247.884 56.8685C248.68 56.8574 249.471 57.0044 250.21 57.301C250.886 57.576 251.487 58.0083 251.964 58.5623L250.518 59.9059C250.199 59.5529 249.809 59.2717 249.375 59.081C248.94 58.8902 248.47 58.7941 247.996 58.7991C247.419 58.7882 246.849 58.9237 246.337 59.1929C245.864 59.4455 245.473 59.8298 245.211 60.2997C244.946 60.8018 244.807 61.3617 244.807 61.9304C244.807 62.4991 244.946 63.059 245.211 63.5611C245.474 64.0307 245.862 64.4169 246.332 64.6756C246.835 64.9474 247.398 65.0848 247.968 65.0746C248.579 65.083 249.182 64.9389 249.724 64.655V61.7747Z" fill="white"/>
<path d="M267.709 66.5727C267.585 66.4577 267.487 66.3178 267.421 66.1621C267.355 66.0064 267.322 65.8385 267.325 65.6692C267.321 65.5024 267.353 65.3367 267.418 65.1832C267.483 65.0296 267.579 64.8917 267.701 64.7786C267.97 64.5493 268.31 64.4235 268.662 64.4235C269.015 64.4235 269.355 64.5493 269.624 64.7786C269.746 64.8917 269.842 65.0296 269.907 65.1832C269.972 65.3367 270.004 65.5024 270 65.6692C270.003 65.8385 269.97 66.0064 269.904 66.1621C269.838 66.3178 269.74 66.4577 269.616 66.5727C269.355 66.8111 269.015 66.9432 268.662 66.9432C268.31 66.9432 267.97 66.8111 267.709 66.5727ZM267.369 57.0281H269.959L269.532 63.4272H267.804L267.369 57.0281Z" fill="white"/>
</svg>
