<svg width="200" height="50" viewBox="0 0 200 50" fill="none" xmlns="http://www.w3.org/2000/svg">
<mask id="mask0_26_1040" style="mask-type:luminance" maskUnits="userSpaceOnUse" x="-10" y="-9" width="219" height="67">
<path d="M208.876 -8.63425H-9.17914V57.7684H208.876V-8.63425Z" fill="white"/>
</mask>
<g mask="url(#mask0_26_1040)">
<path d="M102.757 0.075882H97.6507V33.9374H102.757V0.075882Z" fill="#C61323"/>
<path d="M36.1042 0.075882V33.9299H56.5824V28.9136H40.5677C40.5601 28.9136 40.5529 28.9106 40.5476 28.9053C40.5422 28.8999 40.5392 28.8927 40.5392 28.8852V19.547C40.538 19.5427 40.5379 19.5382 40.5388 19.5338C40.5396 19.5294 40.5415 19.5253 40.5443 19.5218C40.5471 19.5183 40.5506 19.5155 40.5547 19.5136C40.5588 19.5117 40.5632 19.5108 40.5677 19.511H54.6825V14.4947H40.5677C40.5601 14.4947 40.5529 14.4917 40.5476 14.4864C40.5422 14.4811 40.5392 14.4738 40.5392 14.4663V5.12818C40.538 5.12387 40.5379 5.11933 40.5388 5.11495C40.5396 5.11056 40.5415 5.10645 40.5443 5.10294C40.5471 5.09942 40.5506 5.09662 40.5547 5.09474C40.5588 5.09286 40.5632 5.09197 40.5677 5.09213H56.5786V0.075882H36.1042Z" fill="#C61323"/>
<path d="M90.0245 24.4134V24.1649C90.0245 22.9142 89.7782 21.6759 89.2999 20.5205C88.8215 19.3651 88.1203 18.3153 87.2364 17.431C86.3525 16.5468 85.3032 15.8454 84.1484 15.367C82.9935 14.8886 81.7558 14.6425 80.5059 14.6427H72.1629C69.3775 14.6427 67.1003 12.3661 67.2671 9.57715C67.4188 7.07283 69.4894 5.10162 72.6218 5.10162H87.8079V0.075882H72.1857C69.7648 0.075882 67.4431 1.03813 65.7312 2.75094C64.0194 4.46375 63.0577 6.78682 63.0577 9.20909V10.0249C63.0617 12.5425 64.0642 14.9556 65.845 16.7342C67.6258 18.5128 70.0393 19.5115 72.5554 19.511H80.8434C82.0536 19.5145 83.2132 19.9972 84.0688 20.8536C84.9243 21.71 85.4063 22.8705 85.4093 24.0814V24.3299C85.4123 25.5245 84.9417 26.6715 84.1007 27.5194C83.2597 28.3673 82.1169 28.8469 80.923 28.8529L62.9269 28.8074V33.964L80.5059 33.9318C81.756 33.932 82.9938 33.6858 84.1488 33.2073C85.3038 32.7287 86.3532 32.0272 87.2371 31.1428C88.121 30.2583 88.8222 29.2083 89.3004 28.0527C89.7787 26.8971 90.0247 25.6585 90.0245 24.4077" fill="#C61323"/>
<path d="M146.08 0.075882V33.9299H166.558V28.9136H150.543C150.536 28.9136 150.528 28.9106 150.523 28.9053C150.518 28.8999 150.515 28.8927 150.515 28.8852V19.547C150.514 19.5427 150.513 19.5382 150.514 19.5338C150.515 19.5294 150.517 19.5253 150.52 19.5218C150.523 19.5183 150.526 19.5155 150.53 19.5136C150.534 19.5117 150.539 19.5108 150.543 19.511H164.658V14.4947H150.543C150.536 14.4947 150.528 14.4917 150.523 14.4864C150.518 14.4811 150.515 14.4738 150.515 14.4663V5.12818C150.514 5.12387 150.513 5.11933 150.514 5.11495C150.515 5.11056 150.517 5.10645 150.52 5.10294C150.523 5.09942 150.526 5.09662 150.53 5.09474C150.534 5.09286 150.539 5.09197 150.543 5.09213H166.554V0.075882H146.08Z" fill="#C61323"/>
<path d="M200 24.4134V24.1649C200 22.9142 199.754 21.6759 199.275 20.5205C198.797 19.3651 198.096 18.3153 197.212 17.431C196.328 16.5468 195.279 15.8454 194.124 15.367C192.969 14.8886 191.731 14.6425 190.481 14.6427H182.138C179.353 14.6427 177.076 12.3661 177.243 9.57715C177.394 7.07283 179.465 5.10162 182.597 5.10162H197.783V0.075882H182.163C179.742 0.075882 177.42 1.03813 175.709 2.75094C173.997 4.46375 173.035 6.78682 173.035 9.20909V10.0249C173.039 12.5422 174.041 14.9549 175.822 16.7335C177.602 18.5121 180.015 19.511 182.531 19.511H190.819C192.029 19.5145 193.189 19.9972 194.044 20.8536C194.9 21.71 195.382 22.8705 195.385 24.0814V24.3299C195.388 25.5245 194.917 26.6715 194.076 27.5194C193.235 28.3673 192.092 28.8469 190.899 28.8529L172.902 28.8074V33.964L190.481 33.9318C191.731 33.932 192.969 33.6858 194.124 33.2073C195.279 32.7287 196.329 32.0272 197.213 31.1428C198.097 30.2583 198.798 29.2083 199.276 28.0527C199.754 26.8971 200 25.6585 200 24.4077" fill="#C61323"/>
<path d="M127.996 0.075882H112.325V33.9299H116.862V23.3054C116.862 23.2591 116.881 23.2147 116.913 23.182C116.946 23.1493 116.99 23.1309 117.037 23.1309H125.545C125.571 23.1317 125.597 23.138 125.621 23.1494C125.645 23.1609 125.666 23.1772 125.683 23.1973L134.225 33.9431H139.713L130.897 23.0721C130.879 23.0492 130.866 23.0218 130.861 22.9927C130.855 22.9635 130.857 22.9334 130.867 22.9053C130.876 22.8772 130.893 22.852 130.915 22.8321C130.937 22.8121 130.963 22.7981 130.992 22.7913C136.038 21.56 139.563 17.0769 139.563 11.7324V11.6489C139.563 8.57956 138.344 5.63591 136.175 3.46555C134.006 1.29518 131.064 0.075882 127.996 0.075882ZM135.124 12.0625C135.124 13.723 134.465 15.3154 133.291 16.4896C132.118 17.6637 130.526 18.3233 128.867 18.3233H117.061V4.88913H127.955C129.856 4.88913 131.68 5.64489 133.024 6.99016C134.369 8.33543 135.124 10.16 135.124 12.0625Z" fill="#C61323"/>
<path d="M29.8337 16.0581C29.8337 11.8 28.1433 7.71636 25.1343 4.7053C22.1254 1.69424 18.0442 0.00239522 13.7887 0.00189209H0.00189509V4.82083H12.5941C14.5175 4.81845 16.416 5.2565 18.1441 6.10145C27.1203 10.4954 27.1203 23.5084 18.1441 27.9024C16.4157 28.7489 14.5165 29.1883 12.5922 29.1868H0V34.0057H13.7868C18.0423 34.0052 22.1235 32.3134 25.1324 29.3023C28.1414 26.2913 29.8318 22.2076 29.8318 17.9496L29.8337 16.0581Z" fill="#C61323"/>
<path d="M0.00756836 10.8198V23.0892L10.6676 16.9554L0.00756836 10.8198Z" fill="#C61323"/>
<path d="M1.33868 49.1494C0.876031 49.0272 0.440107 48.82 0.0531006 48.5385L0.62194 47.2787C0.957978 47.5196 1.3306 47.7047 1.72549 47.827C2.13824 47.9614 2.56942 48.0305 3.00348 48.0319C3.36674 48.0566 3.73002 47.9839 4.05583 47.8213C4.15947 47.7669 4.24615 47.6851 4.30636 47.5847C4.36656 47.4843 4.39797 47.3692 4.39713 47.2521C4.39819 47.1704 4.38065 47.0895 4.34583 47.0155C4.311 46.9416 4.25982 46.8765 4.19614 46.8253C4.04305 46.7019 3.86808 46.6086 3.6804 46.5502C3.46993 46.4819 3.18551 46.406 2.82903 46.3244C2.37097 46.2206 1.91952 46.0894 1.47709 45.9317C1.12895 45.8049 0.818476 45.5922 0.574536 45.3132C0.310694 44.9877 0.175718 44.5764 0.19531 44.1578C0.191273 43.7525 0.310287 43.3556 0.536613 43.0194C0.792801 42.6551 1.14915 42.3731 1.56242 42.2074C2.09498 41.9948 2.66541 41.8934 3.2386 41.9096C3.6943 41.9089 4.14836 41.9644 4.59054 42.0746C4.99849 42.1713 5.38878 42.3313 5.74718 42.5489L5.22953 43.8182C4.62403 43.4565 3.93423 43.2602 3.22912 43.249C2.86868 43.2232 2.50848 43.3023 2.19194 43.4767C2.08884 43.5384 2.00365 43.6261 1.94479 43.7309C1.88592 43.8357 1.85543 43.9541 1.85632 44.0743C1.85533 44.1941 1.89118 44.3114 1.95901 44.4101C2.02685 44.5089 2.12339 44.5844 2.23555 44.6264C2.61614 44.7852 3.01196 44.9047 3.41683 44.9831C3.8749 45.0869 4.32635 45.2181 4.76877 45.3758C5.1193 45.5031 5.43226 45.7164 5.67892 45.9962C5.94227 46.3153 6.07745 46.7211 6.05814 47.1345C6.06258 47.5407 5.94138 47.9383 5.71115 48.2728C5.45144 48.6372 5.09187 48.9186 4.67587 49.083C4.14141 49.2961 3.56915 49.3981 2.994 49.3827C2.43393 49.3842 1.87652 49.3057 1.33868 49.1494Z" fill="white"/>
<path d="M18.912 43.3951H16.6006V42.0329H22.8938V43.3951H20.5825V49.2575H18.912V43.3951Z" fill="white"/>
<path d="M38.5028 47.7094H35.1486L34.5096 49.2575H32.803L36.0265 42.0329H37.678L40.9014 49.2575H39.1475L38.5028 47.7094ZM37.9757 46.4401L36.838 43.674L35.7003 46.4401H37.9757Z" fill="white"/>
<path d="M56.5653 49.2575L55.1679 47.2445H53.632V49.2575H51.9634V42.0329H55.0902C55.6622 42.0193 56.2306 42.1287 56.7569 42.3535C57.2078 42.5404 57.5906 42.8613 57.8534 43.2729C58.1162 43.6844 58.2464 44.1668 58.2264 44.6548C58.2452 45.1417 58.1122 45.6224 57.8459 46.0303C57.5795 46.4382 57.193 46.7532 56.7398 46.9315L58.361 49.2537L56.5653 49.2575ZM56.1425 43.7195C55.8121 43.4831 55.4101 43.3685 55.0048 43.3951H53.6434V45.9146H55.0048C55.411 45.9413 55.8137 45.8245 56.1425 45.5845C56.2668 45.4631 56.3655 45.318 56.4329 45.1579C56.5003 44.9978 56.535 44.8258 56.535 44.652C56.535 44.4782 56.5003 44.3062 56.4329 44.1461C56.3655 43.9859 56.2668 43.8409 56.1425 43.7195Z" fill="white"/>
<path d="M71.2547 43.3951H68.9452V42.0329H75.2365V43.3951H72.9271V49.2575H71.2547V43.3951Z" fill="white"/>
<path d="M99.6871 42.0329H101.358V47.8953H104.979V49.2575H99.6871V42.0329Z" fill="white"/>
<path d="M116.233 42.0329H117.905V49.2575H116.233V42.0329Z" fill="white"/>
<path d="M136.834 42.0329L133.709 49.2575H132.058L128.943 42.0329H130.748L132.945 47.1933L135.173 42.0329H136.834Z" fill="white"/>
<path d="M147.748 42.0329H149.421V49.2575H147.748V42.0329Z" fill="white"/>
<path d="M168.071 42.0329V49.2575H166.7L163.098 44.8711V49.2575H161.446V42.0329H162.83L166.42 46.4193V42.0329H168.071Z" fill="white"/>
<path d="M184.981 45.5314H186.507V48.4626C186.097 48.7679 185.636 48.9985 185.146 49.1437C184.641 49.3013 184.116 49.3819 183.587 49.3827C182.884 49.3932 182.189 49.2283 181.566 48.9027C180.983 48.5978 180.496 48.1383 180.157 47.5747C179.823 46.988 179.647 46.3243 179.647 45.649C179.647 44.9736 179.823 44.31 180.157 43.7233C180.497 43.1573 180.988 42.6975 181.575 42.3953C182.206 42.0687 182.908 41.9038 183.617 41.9153C184.207 41.9071 184.793 42.0154 185.341 42.234C185.841 42.4367 186.287 42.7553 186.64 43.1636L185.569 44.154C185.332 43.8938 185.044 43.6866 184.722 43.5459C184.4 43.4053 184.052 43.3345 183.701 43.3382C183.273 43.3302 182.851 43.43 182.472 43.6284C182.122 43.8147 181.832 44.0979 181.638 44.4443C181.441 44.8143 181.338 45.227 181.338 45.6461C181.338 46.0653 181.441 46.478 181.638 46.848C181.832 47.1942 182.12 47.4788 182.468 47.6695C182.84 47.8698 183.258 47.9711 183.68 47.9636C184.133 47.9698 184.579 47.8635 184.981 47.6543V45.5314Z" fill="white"/>
<path d="M198.303 49.0678C198.211 48.983 198.139 48.8799 198.09 48.7651C198.041 48.6504 198.017 48.5266 198.019 48.4018C198.016 48.2789 198.039 48.1568 198.087 48.0436C198.135 47.9304 198.207 47.8288 198.297 47.7454C198.496 47.5764 198.748 47.4837 199.009 47.4837C199.27 47.4837 199.522 47.5764 199.721 47.7454C199.812 47.8288 199.883 47.9304 199.931 48.0436C199.979 48.1568 200.003 48.2789 200 48.4018C200.002 48.5266 199.978 48.6504 199.929 48.7651C199.88 48.8799 199.807 48.983 199.716 49.0678C199.522 49.2435 199.27 49.3408 199.009 49.3408C198.748 49.3408 198.496 49.2435 198.303 49.0678ZM198.051 42.0329H199.97L199.653 46.7494H198.373L198.051 42.0329Z" fill="white"/>
</g>
</svg>
